<?xml version="1.0" encoding="utf-8"?>
<!-- Generator: Adobe Illustrator 24.3.0, SVG Export Plug-In . SVG Version: 6.00 Build 0)  -->
<svg version="1.1" id="Layer_1" xmlns="http://www.w3.org/2000/svg" xmlns:xlink="http://www.w3.org/1999/xlink" x="0px" y="0px"
	 viewBox="0 0 49 49" style="enable-background:new 0 0 49 49;" xml:space="preserve">
<style type="text/css">
	.st0{fill:#F6F6F6;}
	.st1{fill:#EAEAEA;}
	.st2{fill:#FFFFFF;}
	.st3{fill:#DBDBDB;}
</style>
<g>
	<g>
		<path class="st0" d="M3.4,36.9l20.3,11.7c0.4,0.2,0.9-0.1,0.9-0.5V25.5c0-0.2-0.1-0.4-0.3-0.5L4,13.3c-0.4-0.2-0.9,0.1-0.9,0.5
			v22.6C3.1,36.6,3.2,36.8,3.4,36.9z"/>
		<path class="st1" d="M45.6,36.9L25.4,48.7c-0.4,0.2-0.9-0.1-0.9-0.5V25.5c0-0.2,0.1-0.4,0.3-0.5l20.3-11.7
			c0.4-0.2,0.9,0.1,0.9,0.5v22.6C45.9,36.6,45.8,36.8,45.6,36.9z"/>
		<path class="st2" d="M45.1,12.3L24.8,0.4c-0.2-0.1-0.4-0.1-0.6,0L4,12.3c-0.4,0.2-0.4,0.8,0,1l20.3,11.8c0.2,0.1,0.4,0.1,0.6,0
			l20.3-11.8C45.5,13.1,45.5,12.5,45.1,12.3z"/>
	</g>
	<g>
		<path class="st1" d="M6.1,37.7l15.2,8.8c1.1,0.7,2.5-0.2,2.5-1.5V28.2c0-1.6-0.9-3.1-2.3-3.9L6.4,15.4c-1.1-0.7-2.5,0.2-2.5,1.5
			v16.9C3.8,35.4,4.7,36.9,6.1,37.7z"/>
		<path class="st3" d="M43,37.7l-15.3,8.8c-1.1,0.7-2.5-0.2-2.5-1.5V28.2c0-1.6,0.9-3.1,2.3-3.9l15.3-8.8c1.1-0.7,2.5,0.2,2.5,1.5
			v16.9C45.2,35.4,44.4,36.9,43,37.7z"/>
		<path class="st0" d="M42.4,11.3L26.9,2.2c-1.4-0.9-3.2-0.9-4.7,0L6.6,11.3c-1.1,0.7-1.1,2.3,0,3l15.5,9c1.4,0.8,3.2,0.8,4.6,0
			l15.5-9C43.5,13.6,43.5,12,42.4,11.3z"/>
	</g>
</g>
</svg>
